{
  "source": "C:\\Users\\Peter\\Desktop\\stuff\\MIUN\\quantitative_research\\video_compression\\videos\\UVG\\Jockey_1920x1080_120fps_420_8bit_YUV.y4m",
  "output": "C:\\Users\\Peter\\Desktop\\stuff\\MIUN\\quantitative_research\\video_compression\\compressed_videos\\UVG\\av1\\12\\Jockey_1920x1080_120fps_420_8bit_YUV_av1.mkv",
  "codec": "av1",
  "ok": "[yuv4mpegpipe @ 00000157ba4b54c0] Stream #0: not enough frames to estimate rate; consider increasing probesize\nInput #0, yuv4mpegpipe, from 'C:\\Users\\Peter\\Desktop\\stuff\\MIUN\\quantitative_research\\video_compression\\videos\\UVG\\Jockey_1920x1080_120fps_420_8bit_YUV.y4m':\n  Duration: 00:00:05.00, start: 0.000000, bitrate: 2985989 kb/s\n  Stream #0:0: Video: rawvideo (I420 / 0x30323449), yuv420p(progressive), 1920x1080, 120 fps, 120 tbr, 120 tbn\n[out#0/matroska @ 00000157ba4b93c0] Codec AVOption b:a (set bitrate (in bits/s)) has not been used for any stream. The most likely reason is either wrong type (e.g. a video option with no video streams) or that it is a private option of some decoder which was not actually used for any stream.\nStream mapping:\n  Stream #0:0 -> #0:0 (rawvideo (native) -> av1 (libsvtav1))\nPress [q] to stop, [?] for help\nSvt[info]: -------------------------------------------\nSvt[info]: SVT [version]:\tSVT-AV1 Encoder Lib v3.1.0-19-g6ecfe8ec\nSvt[info]: SVT [build]  :\tGCC 15.2.0\t 64 bit\nSvt[info]: LIB Build date: Aug 17 2025 11:37:13\nSvt[info]: -------------------------------------------\n[libsvtav1 @ 00000157ba4bc500] Specified chroma sample location center is unsupported on the AV1 bit stream level. Usage of a container that allows passing this information - such as Matroska - is recommended.\nSvt[info]: Level of Parallelism: 5\nSvt[info]: Number of PPCS 93\nSvt[info]: [asm level on system : up to avx2]\nSvt[info]: [asm level selected : up to avx2]\nSvt[info]: -------------------------------------------\nSvt[info]: SVT [config]: main profile\ttier (auto)\tlevel (auto)\nSvt[info]: SVT [config]: width / height / fps numerator / fps denominator \t\t: 1920 / 1080 / 120 / 1\nSvt[info]: SVT [config]: bit-depth / color format \t\t\t\t\t: 8 / YUV420\nSvt[info]: SVT [config]: preset / tune / pred struct \t\t\t\t\t: 4 / PSNR / random access\nSvt[info]: SVT [config]: gop size / mini-gop size / key-frame type \t\t\t: 641 / 16 / key frame\nSvt[info]: SVT [config]: BRC mode / target bitrate (kbps)\t\t\t\t: VBR / 12000 \nSvt[info]: SVT [config]: AQ mode / Variance Boost \t\t\t\t\t: 2 / 0\nSvt[info]: SVT [config]: sharpness / luminance-based QP bias \t\t\t\t: 0 / 0\nSvt[info]: SVT [config]: QP scale compress strength \t\t\t\t\t: 0\nSvt[info]: -------------------------------------------\nOutput #0, matroska, to 'C:\\Users\\Peter\\Desktop\\stuff\\MIUN\\quantitative_research\\video_compression\\compressed_videos\\UVG\\av1\\12\\Jockey_1920x1080_120fps_420_8bit_YUV_av1.mkv':\n  Metadata:\n    encoder         : Lavf62.3.100\n  Stream #0:0: Video: av1 (AV01 / 0x31305641), yuv420p(tv, progressive), 1920x1080, q=2-31, 12000 kb/s, 120 fps, 1k tbn\n    Metadata:\n      encoder         : Lavc62.11.100 libsvtav1\n    Side data:\n      cpb: bitrate max/min/avg: 0/0/12000000 buffer size: 12000000 vbv_delay: N/A\nframe=    0 fps=0.0 q=0.0 size=       0KiB time=N/A bitrate=N/A speed=N/A elapsed=0:00:02.67    \nframe=    0 fps=0.0 q=0.0 size=       0KiB time=N/A bitrate=N/A speed=N/A elapsed=0:00:03.53    \nframe=    0 fps=0.0 q=0.0 size=       0KiB time=N/A bitrate=N/A speed=N/A elapsed=0:00:04.07    \nframe=    0 fps=0.0 q=0.0 size=       0KiB time=N/A bitrate=N/A speed=N/A elapsed=0:00:04.60    \nframe=    0 fps=0.0 q=0.0 size=       0KiB time=N/A bitrate=N/A speed=N/A elapsed=0:00:05.13    \nframe=    0 fps=0.0 q=0.0 size=       0KiB time=N/A bitrate=N/A speed=N/A elapsed=0:00:05.66    \nframe=    0 fps=0.0 q=0.0 size=       0KiB time=N/A bitrate=N/A speed=N/A elapsed=0:00:06.19    \nframe=    0 fps=0.0 q=0.0 size=       0KiB time=N/A bitrate=N/A speed=N/A elapsed=0:00:06.72    \nframe=    0 fps=0.0 q=0.0 size=       0KiB time=N/A bitrate=N/A speed=N/A elapsed=0:00:07.26    \nframe=    0 fps=0.0 q=0.0 size=       0KiB time=N/A bitrate=N/A speed=N/A elapsed=0:00:07.81    \nframe=    0 fps=0.0 q=0.0 size=       0KiB time=N/A bitrate=N/A speed=N/A elapsed=0:00:08.37    \nframe=    0 fps=0.0 q=0.0 size=       0KiB time=N/A bitrate=N/A speed=N/A elapsed=0:00:08.90    \nframe=    0 fps=0.0 q=0.0 size=       0KiB time=N/A bitrate=N/A speed=N/A elapsed=0:00:09.44    \nframe=    0 fps=0.0 q=0.0 size=       0KiB time=N/A bitrate=N/A speed=N/A elapsed=0:00:09.98    \nframe=    0 fps=0.0 q=0.0 size=       0KiB time=N/A bitrate=N/A speed=N/A elapsed=0:00:10.52    \nframe=    0 fps=0.0 q=0.0 size=       0KiB time=N/A bitrate=N/A speed=N/A elapsed=0:00:11.07    \nframe=    0 fps=0.0 q=0.0 size=       0KiB time=N/A bitrate=N/A speed=N/A elapsed=0:00:11.61    \nframe=    0 fps=0.0 q=0.0 size=       0KiB time=N/A bitrate=N/A speed=N/A elapsed=0:00:12.15    \nframe=    0 fps=0.0 q=0.0 size=       0KiB time=N/A bitrate=N/A speed=N/A elapsed=0:00:12.69    \nframe=    0 fps=0.0 q=0.0 size=       0KiB time=N/A bitrate=N/A speed=N/A elapsed=0:00:13.22    \nframe=    0 fps=0.0 q=0.0 size=       0KiB time=N/A bitrate=N/A speed=N/A elapsed=0:00:13.76    \nframe=    0 fps=0.0 q=0.0 size=       0KiB time=N/A bitrate=N/A speed=N/A elapsed=0:00:14.29    \nframe=    0 fps=0.0 q=0.0 size=       0KiB time=N/A bitrate=N/A speed=N/A elapsed=0:00:14.84    \nframe=    0 fps=0.0 q=0.0 size=       0KiB time=N/A bitrate=N/A speed=N/A elapsed=0:00:15.37    \nframe=    1 fps=0.1 q=7.0 size=       1KiB time=00:00:00.00 bitrate=N/A speed=   0x elapsed=0:00:15.90    \nframe=    1 fps=0.1 q=7.0 size=       1KiB time=00:00:00.00 bitrate=N/A speed=   0x elapsed=0:00:16.45    \nframe=    1 fps=0.1 q=7.0 size=       1KiB time=00:00:00.00 bitrate=N/A speed=   0x elapsed=0:00:17.00    \nframe=    1 fps=0.1 q=7.0 size=       1KiB time=00:00:00.00 bitrate=N/A speed=   0x elapsed=0:00:17.55    \nframe=    1 fps=0.1 q=7.0 size=       1KiB time=00:00:00.00 bitrate=N/A speed=   0x elapsed=0:00:18.08    \nframe=    1 fps=0.1 q=7.0 size=       1KiB time=00:00:00.00 bitrate=N/A speed=   0x elapsed=0:00:18.61    \nframe=    1 fps=0.1 q=7.0 size=       1KiB time=00:00:00.00 bitrate=N/A speed=   0x elapsed=0:00:19.16    \nframe=    1 fps=0.1 q=7.0 size=       1KiB time=00:00:00.00 bitrate=N/A speed=   0x elapsed=0:00:19.70    \nframe=    1 fps=0.0 q=7.0 size=       1KiB time=00:00:00.00 bitrate=N/A speed=   0x elapsed=0:00:20.27    \nframe=    1 fps=0.0 q=7.0 size=       1KiB time=00:00:00.00 bitrate=N/A speed=   0x elapsed=0:00:20.82    \nframe=    1 fps=0.0 q=7.0 size=       1KiB time=00:00:00.00 bitrate=N/A speed=   0x elapsed=0:00:21.36    \nframe=    2 fps=0.1 q=32.0 size=       1KiB time=00:00:00.00 bitrate= 537.6kbits/s speed=0.000381x elapsed=0:00:21.89    \nframe=    3 fps=0.1 q=28.0 size=       1KiB time=00:00:00.01 bitrate= 268.8kbits/s speed=0.000743x elapsed=0:00:22.44    \nframe=    4 fps=0.2 q=32.0 size=       1KiB time=00:00:00.02 bitrate= 179.2kbits/s speed=0.00109x elapsed=0:00:22.98    \nframe=    6 fps=0.3 q=28.0 size=       1KiB time=00:00:00.04 bitrate= 107.5kbits/s speed=0.00177x elapsed=0:00:23.51    \nframe=    7 fps=0.3 q=27.0 size=       1KiB time=00:00:00.05 bitrate=  89.6kbits/s speed=0.00208x elapsed=0:00:24.04    \nframe=    8 fps=0.3 q=27.0 size=       1KiB time=00:00:00.05 bitrate=  76.8kbits/s speed=0.00237x elapsed=0:00:24.57    \nframe=    9 fps=0.4 q=22.0 size=       1KiB time=00:00:00.06 bitrate=  67.2kbits/s speed=0.00265x elapsed=0:00:25.13    \nframe=    9 fps=0.4 q=22.0 size=       1KiB time=00:00:00.06 bitrate=  67.2kbits/s speed=0.0026x elapsed=0:00:25.66    \nframe=   12 fps=0.5 q=26.0 size=       1KiB time=00:00:00.09 bitrate=  48.9kbits/s speed=0.0035x elapsed=0:00:26.19    \nframe=   12 fps=0.4 q=26.0 size=       1KiB time=00:00:00.09 bitrate=  48.9kbits/s speed=0.00343x elapsed=0:00:26.73    \nframe=   13 fps=0.5 q=24.0 size=       1KiB time=00:00:00.10 bitrate=  44.8kbits/s speed=0.00367x elapsed=0:00:27.27    \nframe=   14 fps=0.5 q=25.0 size=       1KiB time=00:00:00.10 bitrate=  41.4kbits/s speed=0.00389x elapsed=0:00:27.82    \nframe=   16 fps=0.6 q=25.0 size=       1KiB time=00:00:00.12 bitrate=  35.8kbits/s speed=0.0044x elapsed=0:00:28.37    \nframe=   17 fps=0.6 q=9.0 size=       1KiB time=00:00:00.13 bitrate=  33.6kbits/s speed=0.00461x elapsed=0:00:28.92    \nframe=   18 fps=0.6 q=24.0 size=       1KiB time=00:00:00.14 bitrate=  31.6kbits/s speed=0.00481x elapsed=0:00:29.45    \nframe=   20 fps=0.7 q=24.0 size=       1KiB time=00:00:00.15 bitrate=  28.3kbits/s speed=0.00528x elapsed=0:00:29.98    \nframe=   20 fps=0.7 q=24.0 size=       1KiB time=00:00:00.15 bitrate=  28.3kbits/s speed=0.00519x elapsed=0:00:30.51    \nframe=   21 fps=0.7 q=25.0 size=       1KiB time=00:00:00.16 bitrate=  26.9kbits/s speed=0.00537x elapsed=0:00:31.04    \nframe=   22 fps=0.7 q=22.0 size=       1KiB time=00:00:00.17 bitrate=  25.6kbits/s speed=0.00554x elapsed=0:00:31.59    \nframe=   23 fps=0.7 q=25.0 size=       1KiB time=00:00:00.18 bitrate=  24.4kbits/s speed=0.0057x elapsed=0:00:32.13    \nframe=   24 fps=0.7 q=22.0 size=       1KiB time=00:00:00.19 bitrate=  23.4kbits/s speed=0.00586x elapsed=0:00:32.67    \nframe=   24 fps=0.7 q=22.0 size=       1KiB time=00:00:00.19 bitrate=  23.4kbits/s speed=0.00577x elapsed=0:00:33.22    \nframe=   25 fps=0.7 q=19.0 size=       1KiB time=00:00:00.20 bitrate=  22.4kbits/s speed=0.00592x elapsed=0:00:33.78    \nframe=   25 fps=0.7 q=19.0 size=       1KiB time=00:00:00.20 bitrate=  22.4kbits/s speed=0.00583x elapsed=0:00:34.33    \nframe=   26 fps=0.7 q=21.0 size=       1KiB time=00:00:00.20 bitrate=  21.5kbits/s speed=0.00597x elapsed=0:00:34.88    \nframe=   28 fps=0.8 q=21.0 size=       1KiB time=00:00:00.21 bitrate=  20.7kbits/s speed=0.00611x elapsed=0:00:35.43    \nframe=   28 fps=0.8 q=21.0 size=       1KiB time=00:00:00.22 bitrate=  19.9kbits/s speed=0.00625x elapsed=0:00:35.99    \nframe=   29 fps=0.8 q=24.0 size=       1KiB time=00:00:00.23 bitrate=  19.2kbits/s speed=0.00638x elapsed=0:00:36.54    \nframe=   29 fps=0.8 q=24.0 size=       1KiB time=00:00:00.23 bitrate=  19.2kbits/s speed=0.00629x elapsed=0:00:37.10    \nframe=   31 fps=0.8 q=24.0 size=       1KiB time=00:00:00.25 bitrate=  17.9kbits/s speed=0.00664x elapsed=0:00:37.65    \nframe=   32 fps=0.8 q=20.0 size=       1KiB time=00:00:00.25 bitrate=  17.3kbits/s speed=0.00676x elapsed=0:00:38.21    \nframe=   33 fps=0.9 q=8.0 size=       1KiB time=00:00:00.26 bitrate=  16.8kbits/s speed=0.00688x elapsed=0:00:38.75    \nframe=   34 fps=0.9 q=17.0 size=       1KiB time=00:00:00.27 bitrate=  16.3kbits/s speed=0.007x elapsed=0:00:39.29    \nframe=   36 fps=0.9 q=17.0 size=       1KiB time=00:00:00.29 bitrate=  15.4kbits/s speed=0.00732x elapsed=0:00:39.83    \nframe=   37 fps=0.9 q=24.0 size=       1KiB time=00:00:00.30 bitrate=  14.9kbits/s speed=0.00742x elapsed=0:00:40.42    \nframe=   39 fps=0.9 q=21.0 size=       1KiB time=00:00:00.31 bitrate=  14.1kbits/s speed=0.00771x elapsed=0:00:41.06    \nframe=   40 fps=1.0 q=18.0 size=       1KiB time=00:00:00.32 bitrate=  13.8kbits/s speed=0.00779x elapsed=0:00:41.72    \nframe=   42 fps=1.0 q=17.0 size=       1KiB time=00:00:00.33 bitrate=  13.4kbits/s speed=0.00785x elapsed=0:00:42.44    \nframe=   45 fps=1.0 q=23.0 size=       1KiB time=00:00:00.35 bitrate=  12.5kbits/s speed=0.00829x elapsed=0:00:43.21    \nframe=   47 fps=1.1 q=21.0 size=       1KiB time=00:00:00.38 bitrate=  11.7kbits/s speed=0.0087x elapsed=0:00:44.06    \nframe=   49 fps=1.1 q=6.0 size=       1KiB time=00:00:00.40 bitrate=  11.2kbits/s speed=0.00896x elapsed=0:00:44.62    \nframe=   49 fps=1.1 q=6.0 size=       1KiB time=00:00:00.40 bitrate=  11.2kbits/s speed=0.00885x elapsed=0:00:45.18    \nframe=   51 fps=1.1 q=21.0 size=       1KiB time=00:00:00.41 bitrate=  10.8kbits/s speed=0.00912x elapsed=0:00:45.70    \nframe=   51 fps=1.1 q=21.0 size=       1KiB time=00:00:00.41 bitrate=  10.8kbits/s speed=0.00901x elapsed=0:00:46.23    \nframe=   54 fps=1.2 q=18.0 size=       1KiB time=00:00:00.44 bitrate=  10.1kbits/s speed=0.00945x elapsed=0:00:46.75    \nframe=   55 fps=1.2 q=21.0 size=       1KiB time=00:00:00.45 bitrate=  10.0kbits/s speed=0.00951x elapsed=0:00:47.31    \nframe=   56 fps=1.2 q=19.0 size=       1KiB time=00:00:00.45 bitrate=   9.8kbits/s speed=0.00958x elapsed=0:00:47.86    \nframe=   57 fps=1.2 q=11.0 size=       1KiB time=00:00:00.46 bitrate=   9.6kbits/s speed=0.00963x elapsed=0:00:48.44    \nframe=   60 fps=1.2 q=18.0 size=       1KiB time=00:00:00.49 bitrate=   9.1kbits/s speed=0.01x elapsed=0:00:48.97    \nframe=   61 fps=1.2 q=24.0 size=       1KiB time=00:00:00.50 bitrate=   9.0kbits/s speed=0.0101x elapsed=0:00:49.48    \nframe=   62 fps=1.2 q=19.0 size=       1KiB time=00:00:00.50 bitrate=   8.8kbits/s speed=0.0102x elapsed=0:00:50.05    \nframe=   64 fps=1.3 q=19.0 size=       1KiB time=00:00:00.52 bitrate=   8.5kbits/s speed=0.0104x elapsed=0:00:50.61    \nframe=   65 fps=1.3 q=4.0 size=       1KiB time=00:00:00.53 bitrate=   8.4kbits/s speed=0.0104x elapsed=0:00:51.17    \nframe=   67 fps=1.3 q=24.0 size=       1KiB time=00:00:00.55 bitrate=   8.1kbits/s speed=0.0106x elapsed=0:00:51.76    \nframe=   68 fps=1.3 q=19.0 size=       1KiB time=00:00:00.55 bitrate=   8.0kbits/s speed=0.0107x elapsed=0:00:52.36    \nframe=   70 fps=1.3 q=19.0 size=       1KiB time=00:00:00.57 bitrate=   7.8kbits/s speed=0.0109x elapsed=0:00:52.95    \nframe=   71 fps=1.3 q=24.0 size=       1KiB time=00:00:00.58 bitrate=   7.7kbits/s speed=0.0109x elapsed=0:00:53.52    \nframe=   72 fps=1.3 q=19.0 size=       1KiB time=00:00:00.59 bitrate=   7.6kbits/s speed=0.0109x elapsed=0:00:54.18    \nframe=   74 fps=1.4 q=19.0 size=       1KiB time=00:00:00.60 bitrate=   7.5kbits/s speed=0.011x elapsed=0:00:54.79    \nframe=   75 fps=1.4 q=24.0 size=       1KiB time=00:00:00.61 bitrate=   7.3kbits/s speed=0.0111x elapsed=0:00:55.43    \nframe=   78 fps=1.4 q=19.0 size=       1KiB time=00:00:00.64 bitrate=   7.0kbits/s speed=0.0115x elapsed=0:00:55.95    \nframe=   79 fps=1.4 q=24.0 size=       1KiB time=00:00:00.65 bitrate=   6.9kbits/s speed=0.0115x elapsed=0:00:56.47    \nframe=   81 fps=1.4 q=4.0 size=       1KiB time=00:00:00.65 bitrate=   6.8kbits/s speed=0.0115x elapsed=0:00:57.01    \nframe=   82 fps=1.4 q=18.0 size=       1KiB time=00:00:00.67 bitrate=   6.6kbits/s speed=0.0117x elapsed=0:00:57.59    \nframe=   85 fps=1.5 q=24.0 size=       1KiB time=00:00:00.70 bitrate=   6.4kbits/s speed=0.012x elapsed=0:00:58.11    \nframe=   86 fps=1.5 q=18.0 size=       1KiB time=00:00:00.70 bitrate=   6.3kbits/s speed=0.0121x elapsed=0:00:58.62    \nframe=   87 fps=1.5 q=22.0 size=       1KiB time=00:00:00.71 bitrate=   6.3kbits/s speed=0.0121x elapsed=0:00:59.13    \nframe=   87 fps=1.5 q=22.0 size=       1KiB time=00:00:00.71 bitrate=   6.3kbits/s speed=0.012x elapsed=0:00:59.66    \nframe=   88 fps=1.5 q=19.0 size=       1KiB time=00:00:00.72 bitrate=   6.2kbits/s speed=0.012x elapsed=0:01:00.16    \nframe=   90 fps=1.5 q=19.0 size=       1KiB time=00:00:00.74 bitrate=   6.0kbits/s speed=0.0122x elapsed=0:01:00.68    \nframe=   91 fps=1.5 q=23.0 size=       1KiB time=00:00:00.75 bitrate=   6.0kbits/s speed=0.0123x elapsed=0:01:01.20    \nframe=   92 fps=1.5 q=18.0 size=       1KiB time=00:00:00.75 bitrate=   5.9kbits/s speed=0.0123x elapsed=0:01:01.71    \nframe=   94 fps=1.5 q=19.0 size=       1KiB time=00:00:00.77 bitrate=   5.8kbits/s speed=0.0125x elapsed=0:01:02.23    \nframe=   98 fps=1.6 q=20.0 size=       1KiB time=00:00:00.80 bitrate=   5.5kbits/s speed=0.0129x elapsed=0:01:02.74    \nframe=   99 fps=1.6 q=23.0 size=       1KiB time=00:00:00.81 bitrate=   5.5kbits/s speed=0.0129x elapsed=0:01:03.26    \nframe=  101 fps=1.6 q=23.0 size=       1KiB time=00:00:00.83 bitrate=   5.4kbits/s speed=0.0131x elapsed=0:01:03.79    \nframe=  102 fps=1.6 q=20.0 size=       1KiB time=00:00:00.84 bitrate=   5.3kbits/s speed=0.0131x elapsed=0:01:04.29    \nframe=  103 fps=1.6 q=23.0 size=       1KiB time=00:00:00.85 bitrate=   5.3kbits/s speed=0.0131x elapsed=0:01:04.81    \nframe=  104 fps=1.6 q=20.0 size=       1KiB time=00:00:00.85 bitrate=   5.2kbits/s speed=0.0131x elapsed=0:01:05.33    \nframe=  104 fps=1.6 q=20.0 size=       1KiB time=00:00:00.85 bitrate=   5.2kbits/s speed=0.013x elapsed=0:01:05.86    \nframe=  106 fps=1.6 q=21.0 size=       1KiB time=00:00:00.87 bitrate=   5.1kbits/s speed=0.0132x elapsed=0:01:06.37    \nframe=  107 fps=1.6 q=24.0 size=       1KiB time=00:00:00.88 bitrate=   5.1kbits/s speed=0.0132x elapsed=0:01:06.88    \nframe=  108 fps=1.6 q=21.0 size=       1KiB time=00:00:00.89 bitrate=   5.0kbits/s speed=0.0132x elapsed=0:01:07.40    \nframe=  110 fps=1.6 q=22.0 size=       1KiB time=00:00:00.90 bitrate=   4.9kbits/s speed=0.0134x elapsed=0:01:07.92    \nframe=  112 fps=1.6 q=23.0 size=       1KiB time=00:00:00.92 bitrate=   4.8kbits/s speed=0.0135x elapsed=0:01:08.44    \nframe=  115 fps=1.7 q=25.0 size=       1KiB time=00:00:00.95 bitrate=   4.7kbits/s speed=0.0138x elapsed=0:01:08.94    \nframe=  117 fps=1.7 q=25.0 size=       1KiB time=00:00:00.96 bitrate=   4.6kbits/s speed=0.0139x elapsed=0:01:09.46    \nframe=  118 fps=1.7 q=23.0 size=       1KiB time=00:00:00.97 bitrate=   4.6kbits/s speed=0.0139x elapsed=0:01:09.98    \nframe=  119 fps=1.7 q=25.0 size=       1KiB time=00:00:00.98 bitrate=   4.6kbits/s speed=0.0139x elapsed=0:01:10.50    \nframe=  120 fps=1.7 q=23.0 size=       1KiB time=00:00:00.99 bitrate=   4.5kbits/s speed=0.014x elapsed=0:01:11.02    \nframe=  120 fps=1.7 q=23.0 size=       1KiB time=00:00:00.99 bitrate=   4.5kbits/s speed=0.0139x elapsed=0:01:11.53    \nframe=  122 fps=1.7 q=23.0 size=       1KiB time=00:00:01.00 bitrate=   4.4kbits/s speed=0.014x elapsed=0:01:12.04    \nframe=  123 fps=1.7 q=25.0 size=       1KiB time=00:00:01.01 bitrate=   4.4kbits/s speed=0.014x elapsed=0:01:12.56    \nframe=  123 fps=1.7 q=25.0 size=       1KiB time=00:00:01.01 bitrate=   4.4kbits/s speed=0.0139x elapsed=0:01:13.08    \nframe=  124 fps=1.7 q=19.0 size=       1KiB time=00:00:01.02 bitrate=   4.4kbits/s speed=0.0139x elapsed=0:01:13.59    \nframe=  126 fps=1.7 q=23.0 size=       1KiB time=00:00:01.04 bitrate=   4.3kbits/s speed=0.0141x elapsed=0:01:14.11    \nframe=  127 fps=1.7 q=25.0 size=       1KiB time=00:00:01.05 bitrate=   4.3kbits/s speed=0.0141x elapsed=0:01:14.63    \nframe=  129 fps=1.7 q=5.0 size=       1KiB time=00:00:01.06 bitrate=   4.2kbits/s speed=0.0142x elapsed=0:01:15.13    \nframe=  129 fps=1.7 q=5.0 size=       1KiB time=00:00:01.06 bitrate=   4.2kbits/s speed=0.0141x elapsed=0:01:15.65    \nframe=  130 fps=1.7 q=23.0 size=       1KiB time=00:00:01.07 bitrate=   4.2kbits/s speed=0.0141x elapsed=0:01:16.18    \nframe=  131 fps=1.7 q=24.0 size=       1KiB time=00:00:01.08 bitrate=   4.1kbits/s speed=0.0141x elapsed=0:01:16.68    \nframe=  131 fps=1.7 q=24.0 size=       1KiB time=00:00:01.08 bitrate=   4.1kbits/s speed=0.014x elapsed=0:01:17.20    \nframe=  133 fps=1.7 q=25.0 size=       1KiB time=00:00:01.10 bitrate=   4.1kbits/s speed=0.0142x elapsed=0:01:17.72    \nframe=  134 fps=1.7 q=23.0 size=       1KiB time=00:00:01.10 bitrate=   4.0kbits/s speed=0.0142x elapsed=0:01:18.23    \nframe=  135 fps=1.7 q=24.0 size=       1KiB time=00:00:01.11 bitrate=   4.0kbits/s speed=0.0142x elapsed=0:01:18.75    \nframe=  135 fps=1.7 q=24.0 size=       1KiB time=00:00:01.11 bitrate=   4.0kbits/s speed=0.0141x elapsed=0:01:19.27    \nframe=  136 fps=1.7 q=23.0 size=       1KiB time=00:00:01.12 bitrate=   4.0kbits/s speed=0.0141x elapsed=0:01:19.78    \nframe=  138 fps=1.7 q=23.0 size=       1KiB time=00:00:01.14 bitrate=   3.9kbits/s speed=0.0142x elapsed=0:01:20.29    \nframe=  138 fps=1.7 q=23.0 size=       1KiB time=00:00:01.14 bitrate=   3.9kbits/s speed=0.0141x elapsed=0:01:20.82    \nframe=  139 fps=1.7 q=24.0 size=       1KiB time=00:00:01.15 bitrate=   3.9kbits/s speed=0.0141x elapsed=0:01:21.33    \nframe=  140 fps=1.7 q=18.0 size=       1KiB time=00:00:01.15 bitrate=   3.9kbits/s speed=0.0142x elapsed=0:01:21.84    \nframe=  140 fps=1.7 q=18.0 size=       1KiB time=00:00:01.15 bitrate=   3.9kbits/s speed=0.0141x elapsed=0:01:22.36    \nframe=  141 fps=1.7 q=25.0 size=       1KiB time=00:00:01.16 bitrate=   3.8kbits/s speed=0.0141x elapsed=0:01:22.88    \nframe=  142 fps=1.7 q=23.0 size=       1KiB time=00:00:01.17 bitrate=   3.8kbits/s speed=0.0141x elapsed=0:01:23.39    \nframe=  144 fps=1.7 q=23.0 size=       1KiB time=00:00:01.19 bitrate=   3.8kbits/s speed=0.0142x elapsed=0:01:23.91    \nframe=  145 fps=1.7 q=5.0 size=       1KiB time=00:00:01.20 bitrate=   3.7kbits/s speed=0.0142x elapsed=0:01:24.41    \nframe=  146 fps=1.7 q=23.0 size=       1KiB time=00:00:01.20 bitrate=   3.7kbits/s speed=0.0142x elapsed=0:01:24.94    \nframe=  147 fps=1.7 q=24.0 size=       1KiB time=00:00:01.21 bitrate=   3.7kbits/s speed=0.0142x elapsed=0:01:25.45    \nframe=  147 fps=1.7 q=24.0 size=       1KiB time=00:00:01.21 bitrate=   3.7kbits/s speed=0.0142x elapsed=0:01:25.96    \nframe=  148 fps=1.7 q=19.0 size=       1KiB time=00:00:01.22 bitrate=   3.7kbits/s speed=0.0142x elapsed=0:01:26.48    \nframe=  149 fps=1.7 q=25.0 size=       1KiB time=00:00:01.23 bitrate=   3.6kbits/s speed=0.0142x elapsed=0:01:27.00    \nframe=  151 fps=1.7 q=24.0 size=       1KiB time=00:00:01.25 bitrate=   3.6kbits/s speed=0.0143x elapsed=0:01:27.52    \nframe=  151 fps=1.7 q=24.0 size=       1KiB time=00:00:01.25 bitrate=   3.6kbits/s speed=0.0142x elapsed=0:01:28.03    \nframe=  152 fps=1.7 q=23.0 size=       1KiB time=00:00:01.25 bitrate=   3.6kbits/s speed=0.0142x elapsed=0:01:28.54    \nframe=  153 fps=1.7 q=14.0 size=       1KiB time=00:00:01.26 bitrate=   3.5kbits/s speed=0.0142x elapsed=0:01:29.05    \nframe=  154 fps=1.7 q=23.0 size=       1KiB time=00:00:01.27 bitrate=   3.5kbits/s speed=0.0142x elapsed=0:01:29.57    \nframe=  155 fps=1.7 q=25.0 size=       1KiB time=00:00:01.28 bitrate=   3.5kbits/s speed=0.0142x elapsed=0:01:30.10    \nframe=  155 fps=1.7 q=25.0 size=       1KiB time=00:00:01.28 bitrate=   3.5kbits/s speed=0.0142x elapsed=0:01:30.60    \nframe=  156 fps=1.7 q=19.0 size=       1KiB time=00:00:01.29 bitrate=   3.5kbits/s speed=0.0142x elapsed=0:01:31.12    \nframe=  157 fps=1.7 q=25.0 size=       1KiB time=00:00:01.30 bitrate=   3.4kbits/s speed=0.0142x elapsed=0:01:31.63    \nframe=  158 fps=1.7 q=23.0 size=       1KiB time=00:00:01.30 bitrate=   3.4kbits/s speed=0.0142x elapsed=0:01:32.16    \nframe=  160 fps=1.7 q=23.0 size=       1KiB time=00:00:01.32 bitrate=   3.4kbits/s speed=0.0143x elapsed=0:01:32.67    \nframe=  161 fps=1.7 q=6.0 size=       1KiB time=00:00:01.33 bitrate=   3.4kbits/s speed=0.0143x elapsed=0:01:33.18    \nframe=  162 fps=1.7 q=23.0 size=       1KiB time=00:00:01.34 bitrate=   3.3kbits/s speed=0.0143x elapsed=0:01:33.70    \nframe=  163 fps=1.7 q=25.0 size=       1KiB time=00:00:01.35 bitrate=   3.3kbits/s speed=0.0143x elapsed=0:01:34.21    \nframe=  163 fps=1.7 q=25.0 size=       1KiB time=00:00:01.35 bitrate=   3.3kbits/s speed=0.0143x elapsed=0:01:34.73    \nframe=  164 fps=1.7 q=21.0 size=       1KiB time=00:00:01.35 bitrate=   3.3kbits/s speed=0.0143x elapsed=0:01:35.25    \nframe=  165 fps=1.7 q=25.0 size=       1KiB time=00:00:01.36 bitrate=   3.3kbits/s speed=0.0143x elapsed=0:01:35.76    \nframe=  165 fps=1.7 q=25.0 size=       1KiB time=00:00:01.36 bitrate=   3.3kbits/s speed=0.0142x elapsed=0:01:36.27    \nframe=  167 fps=1.7 q=25.0 size=       1KiB time=00:00:01.38 bitrate=   3.2kbits/s speed=0.0143x elapsed=0:01:36.80    \nframe=  167 fps=1.7 q=25.0 size=       1KiB time=00:00:01.38 bitrate=   3.2kbits/s speed=0.0142x elapsed=0:01:37.31    \nframe=  168 fps=1.7 q=23.0 size=       1KiB time=00:00:01.39 bitrate=   3.2kbits/s speed=0.0142x elapsed=0:01:37.82    \nframe=  170 fps=1.7 q=24.0 size=       1KiB time=00:00:01.40 bitrate=   3.2kbits/s speed=0.0143x elapsed=0:01:38.34    \nframe=  170 fps=1.7 q=24.0 size=       1KiB time=00:00:01.40 bitrate=   3.2kbits/s speed=0.0142x elapsed=0:01:38.86    \nframe=  171 fps=1.7 q=26.0 size=       1KiB time=00:00:01.41 bitrate=   3.2kbits/s speed=0.0143x elapsed=0:01:39.37    \nframe=  171 fps=1.7 q=26.0 size=       1KiB time=00:00:01.41 bitrate=   3.2kbits/s speed=0.0142x elapsed=0:01:39.89    \nframe=  172 fps=1.7 q=20.0 size=       1KiB time=00:00:01.42 bitrate=   3.1kbits/s speed=0.0142x elapsed=0:01:40.41    \nframe=  174 fps=1.7 q=24.0 size=       1KiB time=00:00:01.44 bitrate=   3.1kbits/s speed=0.0143x elapsed=0:01:40.92    \nframe=  174 fps=1.7 q=24.0 size=       1KiB time=00:00:01.44 bitrate=   3.1kbits/s speed=0.0142x elapsed=0:01:41.44    \nframe=  176 fps=1.7 q=24.0 size=       1KiB time=00:00:01.45 bitrate=   3.1kbits/s speed=0.0143x elapsed=0:01:41.95    \nframe=  177 fps=1.7 q=5.0 size=       1KiB time=00:00:01.46 bitrate=   3.1kbits/s speed=0.0143x elapsed=0:01:42.47    \nframe=  178 fps=1.7 q=22.0 size=       1KiB time=00:00:01.47 bitrate=   3.0kbits/s speed=0.0143x elapsed=0:01:42.99    \nframe=  179 fps=1.7 q=23.0 size=       1KiB time=00:00:01.48 bitrate=   3.0kbits/s speed=0.0143x elapsed=0:01:43.50    \nframe=  179 fps=1.7 q=23.0 size=       1KiB time=00:00:01.48 bitrate=   3.0kbits/s speed=0.0143x elapsed=0:01:44.02    \nframe=  180 fps=1.7 q=16.0 size=       1KiB time=00:00:01.49 bitrate=   3.0kbits/s speed=0.0143x elapsed=0:01:44.53    \nframe=  181 fps=1.7 q=24.0 size=       1KiB time=00:00:01.50 bitrate=   3.0kbits/s speed=0.0143x elapsed=0:01:45.04    \nframe=  182 fps=1.7 q=23.0 size=       1KiB time=00:00:01.50 bitrate=   3.0kbits/s speed=0.0143x elapsed=0:01:45.56    \nframe=  183 fps=1.7 q=24.0 size=       1KiB time=00:00:01.51 bitrate=   3.0kbits/s speed=0.0143x elapsed=0:01:46.08    \nframe=  183 fps=1.7 q=24.0 size=       1KiB time=00:00:01.51 bitrate=   3.0kbits/s speed=0.0142x elapsed=0:01:46.58    \nframe=  184 fps=1.7 q=23.0 size=       1KiB time=00:00:01.52 bitrate=   2.9kbits/s speed=0.0142x elapsed=0:01:47.11    \nframe=  186 fps=1.7 q=23.0 size=       1KiB time=00:00:01.54 bitrate=   2.9kbits/s speed=0.0143x elapsed=0:01:47.63    \nframe=  187 fps=1.7 q=24.0 size=       1KiB time=00:00:01.55 bitrate=   2.9kbits/s speed=0.0143x elapsed=0:01:48.13    \nframe=  187 fps=1.7 q=24.0 size=       1KiB time=00:00:01.55 bitrate=   2.9kbits/s speed=0.0143x elapsed=0:01:48.65    \nframe=  188 fps=1.7 q=18.0 size=       1KiB time=00:00:01.55 bitrate=   2.9kbits/s speed=0.0143x elapsed=0:01:49.17    \nframe=  189 fps=1.7 q=24.0 size=       1KiB time=00:00:01.56 bitrate=   2.9kbits/s speed=0.0143x elapsed=0:01:49.69    \nframe=  190 fps=1.7 q=22.0 size=       1KiB time=00:00:01.57 bitrate=   2.8kbits/s speed=0.0143x elapsed=0:01:50.22    \nframe=  192 fps=1.7 q=22.0 size=       1KiB time=00:00:01.59 bitrate=   2.8kbits/s speed=0.0144x elapsed=0:01:50.73    \nframe=  194 fps=1.7 q=23.0 size=       1KiB time=00:00:01.60 bitrate=   2.8kbits/s speed=0.0145x elapsed=0:01:51.26    \nframe=  194 fps=1.7 q=23.0 size=       1KiB time=00:00:01.60 bitrate=   2.8kbits/s speed=0.0144x elapsed=0:01:51.77    \nframe=  195 fps=1.7 q=25.0 size=       1KiB time=00:00:01.61 bitrate=   2.8kbits/s speed=0.0144x elapsed=0:01:52.29    \nframe=  195 fps=1.7 q=25.0 size=       1KiB time=00:00:01.61 bitrate=   2.8kbits/s speed=0.0143x elapsed=0:01:52.82    \nframe=  196 fps=1.7 q=18.0 size=       1KiB time=00:00:01.62 bitrate=   2.8kbits/s speed=0.0143x elapsed=0:01:53.33    \nframe=  197 fps=1.7 q=25.0 size=       1KiB time=00:00:01.63 bitrate=   2.7kbits/s speed=0.0143x elapsed=0:01:53.84    \nframe=  198 fps=1.7 q=23.0 size=       1KiB time=00:00:01.64 bitrate=   2.7kbits/s speed=0.0144x elapsed=0:01:54.35    \nframe=  198 fps=1.7 q=23.0 size=       1KiB time=00:00:01.64 bitrate=   2.7kbits/s speed=0.0143x elapsed=0:01:54.87    \nframe=  199 fps=1.7 q=24.0 size=       1KiB time=00:00:01.65 bitrate=   2.7kbits/s speed=0.0143x elapsed=0:01:55.39    \nframe=  200 fps=1.7 q=23.0 size=       1KiB time=00:00:01.65 bitrate=   2.7kbits/s speed=0.0143x elapsed=0:01:55.91    \nframe=  200 fps=1.7 q=23.0 size=       1KiB time=00:00:01.65 bitrate=   2.7kbits/s speed=0.0142x elapsed=0:01:56.44    \nframe=  202 fps=1.7 q=23.0 size=       1KiB time=00:00:01.67 bitrate=   2.7kbits/s speed=0.0143x elapsed=0:01:56.95    \nframe=  203 fps=1.7 q=24.0 size=       1KiB time=00:00:01.68 bitrate=   2.7kbits/s speed=0.0143x elapsed=0:01:57.47    \nframe=  204 fps=1.7 q=18.0 size=       1KiB time=00:00:01.69 bitrate=   2.6kbits/s speed=0.0143x elapsed=0:01:57.98    \nframe=  205 fps=1.7 q=25.0 size=       1KiB time=00:00:01.70 bitrate=   2.6kbits/s speed=0.0143x elapsed=0:01:58.50    \nframe=  206 fps=1.7 q=23.0 size=       1KiB time=00:00:01.70 bitrate=   2.6kbits/s speed=0.0144x elapsed=0:01:59.02    \nframe=  208 fps=1.7 q=23.0 size=       1KiB time=00:00:01.72 bitrate=   2.6kbits/s speed=0.0144x elapsed=0:01:59.55    \nframe=  210 fps=1.7 q=24.0 size=       1KiB time=00:00:01.74 bitrate=   2.6kbits/s speed=0.0145x elapsed=0:02:00.06    \nframe=  210 fps=1.7 q=24.0 size=       1KiB time=00:00:01.74 bitrate=   2.6kbits/s speed=0.0144x elapsed=0:02:00.57    \nframe=  211 fps=1.7 q=26.0 size=       1KiB time=00:00:01.75 bitrate=   2.6kbits/s speed=0.0145x elapsed=0:02:01.09    \nframe=  212 fps=1.7 q=21.0 size=       1KiB time=00:00:01.75 bitrate=   2.5kbits/s speed=0.0145x elapsed=0:02:01.61    \nframe=  212 fps=1.7 q=21.0 size=       1KiB time=00:00:01.75 bitrate=   2.5kbits/s speed=0.0144x elapsed=0:02:02.12    \nframe=  213 fps=1.7 q=26.0 size=       1KiB time=00:00:01.76 bitrate=   2.5kbits/s speed=0.0144x elapsed=0:02:02.64    \nframe=  214 fps=1.7 q=24.0 size=       1KiB time=00:00:01.77 bitrate=   2.5kbits/s speed=0.0144x elapsed=0:02:03.16    \nframe=  215 fps=1.7 q=26.0 size=       1KiB time=00:00:01.78 bitrate=   2.5kbits/s speed=0.0144x elapsed=0:02:03.68    \nframe=  216 fps=1.7 q=24.0 size=       1KiB time=00:00:01.79 bitrate=   2.5kbits/s speed=0.0144x elapsed=0:02:04.20    \nframe=  217 fps=1.7 q=14.0 size=       1KiB time=00:00:01.80 bitrate=   2.5kbits/s speed=0.0144x elapsed=0:02:04.71    \nframe=  218 fps=1.7 q=24.0 size=       1KiB time=00:00:01.80 bitrate=   2.5kbits/s speed=0.0144x elapsed=0:02:05.24    \nframe=  219 fps=1.7 q=26.0 size=       1KiB time=00:00:01.81 bitrate=   2.5kbits/s speed=0.0144x elapsed=0:02:05.76    \nframe=  219 fps=1.7 q=26.0 size=       1KiB time=00:00:01.81 bitrate=   2.5kbits/s speed=0.0144x elapsed=0:02:06.28    \nframe=  220 fps=1.7 q=20.0 size=       1KiB time=00:00:01.82 bitrate=   2.5kbits/s speed=0.0144x elapsed=0:02:06.79    \nframe=  222 fps=1.7 q=25.0 size=       1KiB time=00:00:01.84 bitrate=   2.4kbits/s speed=0.0145x elapsed=0:02:07.31    \nframe=  225 fps=1.8 q=6.0 size=       1KiB time=00:00:01.86 bitrate=   2.4kbits/s speed=0.0146x elapsed=0:02:07.83    \nframe=  225 fps=1.8 q=6.0 size=       1KiB time=00:00:01.86 bitrate=   2.4kbits/s speed=0.0145x elapsed=0:02:08.34    \nframe=  226 fps=1.8 q=25.0 size=       1KiB time=00:00:01.87 bitrate=   2.4kbits/s speed=0.0146x elapsed=0:02:08.85    \nframe=  227 fps=1.8 q=25.0 size=       1KiB time=00:00:01.88 bitrate=   2.4kbits/s speed=0.0146x elapsed=0:02:09.37    \nframe=  228 fps=1.8 q=25.0 size=       1KiB time=00:00:01.89 bitrate=   2.4kbits/s speed=0.0146x elapsed=0:02:09.89    \nframe=  229 fps=1.8 q=26.0 size=       1KiB time=00:00:01.90 bitrate=   2.4kbits/s speed=0.0146x elapsed=0:02:10.42    \nframe=  229 fps=1.7 q=26.0 size=       1KiB time=00:00:01.90 bitrate=   2.4kbits/s speed=0.0145x elapsed=0:02:10.94    \nframe=  230 fps=1.7 q=25.0 size=       1KiB time=00:00:01.90 bitrate=   2.3kbits/s speed=0.0145x elapsed=0:02:11.45    \nframe=  231 fps=1.8 q=25.0 size=       1KiB time=00:00:01.91 bitrate=   2.3kbits/s speed=0.0145x elapsed=0:02:11.97    \nframe=  231 fps=1.7 q=25.0 size=       1KiB time=00:00:01.91 bitrate=   2.3kbits/s speed=0.0145x elapsed=0:02:12.49    \nframe=  232 fps=1.7 q=25.0 size=       1KiB time=00:00:01.92 bitrate=   2.3kbits/s speed=0.0145x elapsed=0:02:13.01    \nframe=  234 fps=1.8 q=25.0 size=       1KiB time=00:00:01.94 bitrate=   2.3kbits/s speed=0.0145x elapsed=0:02:13.53    \nframe=  235 fps=1.8 q=26.0 size=       1KiB time=00:00:01.94 bitrate=   2.3kbits/s speed=0.0145x elapsed=0:02:14.06    \nframe=  235 fps=1.7 q=26.0 size=       1KiB time=00:00:01.95 bitrate=   2.3kbits/s speed=0.0145x elapsed=0:02:14.57    \nframe=  236 fps=1.7 q=21.0 size=       1KiB time=00:00:01.95 bitrate=   2.3kbits/s speed=0.0145x elapsed=0:02:15.09    \nframe=  237 fps=1.7 q=25.0 size=       1KiB time=00:00:01.96 bitrate=   2.3kbits/s speed=0.0145x elapsed=0:02:15.61    \nframe=  239 fps=1.8 q=26.0 size=       1KiB time=00:00:01.98 bitrate=   2.3kbits/s speed=0.0146x elapsed=0:02:16.12    \nframe=  241 fps=1.8 q=7.0 size=       1KiB time=00:00:02.00 bitrate=   2.2kbits/s speed=0.0146x elapsed=0:02:16.64    \nframe=  242 fps=1.8 q=26.0 size=       1KiB time=00:00:02.00 bitrate=   2.2kbits/s speed=0.0146x elapsed=0:02:17.15    \nframe=  243 fps=1.8 q=26.0 size=       1KiB time=00:00:02.01 bitrate=   2.2kbits/s speed=0.0146x elapsed=0:02:17.67    \nframe=  244 fps=1.8 q=26.0 size=       1KiB time=00:00:02.02 bitrate=   2.2kbits/s speed=0.0147x elapsed=0:02:18.18    \nframe=  245 fps=1.8 q=27.0 size=       1KiB time=00:00:02.03 bitrate=   2.2kbits/s speed=0.0147x elapsed=0:02:18.70    \nframe=  246 fps=1.8 q=26.0 size=       1KiB time=00:00:02.04 bitrate=   2.2kbits/s speed=0.0147x elapsed=0:02:19.22    \nframe=  247 fps=1.8 q=26.0 size=       1KiB time=00:00:02.05 bitrate=   2.2kbits/s speed=0.0147x elapsed=0:02:19.73    \nframe=  247 fps=1.8 q=26.0 size=       1KiB time=00:00:02.05 bitrate=   2.2kbits/s speed=0.0146x elapsed=0:02:20.26    \nframe=  249 fps=1.8 q=16.0 size=       1KiB time=00:00:02.06 bitrate=   2.2kbits/s speed=0.0147x elapsed=0:02:20.79    \nframe=  250 fps=1.8 q=26.0 size=       1KiB time=00:00:02.07 bitrate=   2.2kbits/s speed=0.0147x elapsed=0:02:21.30    \nframe=  250 fps=1.8 q=26.0 size=       1KiB time=00:00:02.07 bitrate=   2.2kbits/s speed=0.0146x elapsed=0:02:21.82    \nframe=  251 fps=1.8 q=26.0 size=       1KiB time=00:00:02.08 bitrate=   2.2kbits/s speed=0.0146x elapsed=0:02:22.34    \nframe=  252 fps=1.8 q=22.0 size=       1KiB time=00:00:02.09 bitrate=   2.1kbits/s speed=0.0146x elapsed=0:02:22.85    \nframe=  253 fps=1.8 q=27.0 size=       1KiB time=00:00:02.10 bitrate=   2.1kbits/s speed=0.0146x elapsed=0:02:23.37    \nframe=  254 fps=1.8 q=26.0 size=       1KiB time=00:00:02.10 bitrate=   2.1kbits/s speed=0.0147x elapsed=0:02:23.89    \nframe=  257 fps=1.8 q=7.0 size=       1KiB time=00:00:02.13 bitrate=   2.1kbits/s speed=0.0148x elapsed=0:02:24.42    \nframe=  258 fps=1.8 q=27.0 size=       1KiB time=00:00:02.14 bitrate=   2.1kbits/s speed=0.0148x elapsed=0:02:24.93    \nframe=  259 fps=1.8 q=27.0 size=       1KiB time=00:00:02.15 bitrate=   2.1kbits/s speed=0.0148x elapsed=0:02:25.44    \nframe=  260 fps=1.8 q=27.0 size=       1KiB time=00:00:02.15 bitrate=   2.1kbits/s speed=0.0148x elapsed=0:02:25.97    \nframe=  261 fps=1.8 q=28.0 size=       1KiB time=00:00:02.16 bitrate=   2.1kbits/s speed=0.0148x elapsed=0:02:26.50    \nframe=  262 fps=1.8 q=26.0 size=       1KiB time=00:00:02.17 bitrate=   2.1kbits/s speed=0.0148x elapsed=0:02:27.04    \nframe=  262 fps=1.8 q=26.0 size=       1KiB time=00:00:02.17 bitrate=   2.1kbits/s speed=0.0147x elapsed=0:02:27.56    \nframe=  263 fps=1.8 q=26.0 size=       1KiB time=00:00:02.18 bitrate=   2.1kbits/s speed=0.0147x elapsed=0:02:28.08    \nframe=  263 fps=1.8 q=26.0 size=       1KiB time=00:00:02.18 bitrate=   2.1kbits/s speed=0.0147x elapsed=0:02:28.61    \nframe=  264 fps=1.8 q=26.0 size=       1KiB time=00:00:02.19 bitrate=   2.0kbits/s speed=0.0147x elapsed=0:02:29.14    \nframe=  266 fps=1.8 q=27.0 size=       1KiB time=00:00:02.20 bitrate=   2.0kbits/s speed=0.0148x elapsed=0:02:29.65    \nframe=  267 fps=1.8 q=27.0 size=       1KiB time=00:00:02.21 bitrate=   2.0kbits/s speed=0.0148x elapsed=0:02:30.18    \nframe=  267 fps=1.8 q=27.0 size=       1KiB time=00:00:02.21 bitrate=   2.0kbits/s speed=0.0147x elapsed=0:02:30.70    \nframe=  268 fps=1.8 q=23.0 size=       1KiB time=00:00:02.22 bitrate=   2.0kbits/s speed=0.0147x elapsed=0:02:31.21    \nframe=  269 fps=1.8 q=27.0 size=       1KiB time=00:00:02.23 bitrate=   2.0kbits/s speed=0.0147x elapsed=0:02:31.74    \nframe=  272 fps=1.8 q=27.0 size=       1KiB time=00:00:02.25 bitrate=   2.0kbits/s speed=0.0148x elapsed=0:02:32.26    \nframe=  273 fps=1.8 q=11.0 size=       1KiB time=00:00:02.26 bitrate=   2.0kbits/s speed=0.0148x elapsed=0:02:32.79    \nframe=  274 fps=1.8 q=27.0 size=       1KiB time=00:00:02.27 bitrate=   2.0kbits/s speed=0.0148x elapsed=0:02:33.31    \nframe=  275 fps=1.8 q=27.0 size=       1KiB time=00:00:02.28 bitrate=   2.0kbits/s speed=0.0148x elapsed=0:02:33.83    \nframe=  276 fps=1.8 q=27.0 size=       1KiB time=00:00:02.29 bitrate=   2.0kbits/s speed=0.0148x elapsed=0:02:34.36    \nframe=  277 fps=1.8 q=28.0 size=       1KiB time=00:00:02.30 bitrate=   1.9kbits/s speed=0.0148x elapsed=0:02:34.89    \nframe=  278 fps=1.8 q=26.0 size=       1KiB time=00:00:02.30 bitrate=   1.9kbits/s speed=0.0149x elapsed=0:02:35.40    \nframe=  278 fps=1.8 q=26.0 size=       1KiB time=00:00:02.30 bitrate=   1.9kbits/s speed=0.0148x elapsed=0:02:35.94    \nframe=  279 fps=1.8 q=26.0 size=       1KiB time=00:00:02.31 bitrate=   1.9kbits/s speed=0.0148x elapsed=0:02:36.46    \nframe=  280 fps=1.8 q=26.0 size=       1KiB time=00:00:02.32 bitrate=   1.9kbits/s speed=0.0148x elapsed=0:02:36.98    \nframe=  280 fps=1.8 q=26.0 size=       1KiB time=00:00:02.32 bitrate=   1.9kbits/s speed=0.0148x elapsed=0:02:37.50    \nframe=  282 fps=1.8 q=27.0 size=       1KiB time=00:00:02.34 bitrate=   1.9kbits/s speed=0.0148x elapsed=0:02:38.01    \nframe=  283 fps=1.8 q=27.0 size=       1KiB time=00:00:02.35 bitrate=   1.9kbits/s speed=0.0148x elapsed=0:02:38.54    \nframe=  283 fps=1.8 q=27.0 size=       1KiB time=00:00:02.35 bitrate=   1.9kbits/s speed=0.0148x elapsed=0:02:39.06    \nframe=  284 fps=1.8 q=24.0 size=       1KiB time=00:00:02.35 bitrate=   1.9kbits/s speed=0.0148x elapsed=0:02:39.57    \nframe=  286 fps=1.8 q=28.0 size=       1KiB time=00:00:02.37 bitrate=   1.9kbits/s speed=0.0148x elapsed=0:02:40.11    \nframe=  288 fps=1.8 q=28.0 size=       1KiB time=00:00:02.39 bitrate=   1.9kbits/s speed=0.0149x elapsed=0:02:40.62    \nframe=  289 fps=1.8 q=13.0 size=       1KiB time=00:00:02.40 bitrate=   1.9kbits/s speed=0.0149x elapsed=0:02:41.14    \nframe=  290 fps=1.8 q=29.0 size=       1KiB time=00:00:02.40 bitrate=   1.9kbits/s speed=0.0149x elapsed=0:02:41.67    \nframe=  291 fps=1.8 q=29.0 size=       1KiB time=00:00:02.41 bitrate=   1.9kbits/s speed=0.0149x elapsed=0:02:42.20    \nframe=  292 fps=1.8 q=29.0 size=       1KiB time=00:00:02.42 bitrate=   1.8kbits/s speed=0.0149x elapsed=0:02:42.72    \nframe=  293 fps=1.8 q=29.0 size=       1KiB time=00:00:02.43 bitrate=   1.8kbits/s speed=0.0149x elapsed=0:02:43.25    \nframe=  293 fps=1.8 q=29.0 size=       1KiB time=00:00:02.43 bitrate=   1.8kbits/s speed=0.0149x elapsed=0:02:43.78    \nframe=  294 fps=1.8 q=29.0 size=       1KiB time=00:00:02.44 bitrate=   1.8kbits/s speed=0.0149x elapsed=0:02:44.29    \nframe=  295 fps=1.8 q=29.0 size=       1KiB time=00:00:02.45 bitrate=   1.8kbits/s speed=0.0149x elapsed=0:02:44.82    \nframe=  295 fps=1.8 q=29.0 size=       1KiB time=00:00:02.45 bitrate=   1.8kbits/s speed=0.0148x elapsed=0:02:45.35    \nframe=  296 fps=1.8 q=29.0 size=       1KiB time=00:00:02.45 bitrate=   1.8kbits/s speed=0.0148x elapsed=0:02:45.87    \nframe=  298 fps=1.8 q=30.0 size=       1KiB time=00:00:02.47 bitrate=   1.8kbits/s speed=0.0149x elapsed=0:02:46.38    \nframe=  299 fps=1.8 q=31.0 size=       1KiB time=00:00:02.48 bitrate=   1.8kbits/s speed=0.0149x elapsed=0:02:46.91    \nframe=  299 fps=1.8 q=31.0 size=       1KiB time=00:00:02.48 bitrate=   1.8kbits/s speed=0.0148x elapsed=0:02:47.44    \nframe=  301 fps=1.8 q=28.0 size=       1KiB time=00:00:02.50 bitrate=   1.8kbits/s speed=0.0149x elapsed=0:02:47.97    \nframe=  302 fps=1.8 q=30.0 size=       1KiB time=00:00:02.50 bitrate=   1.8kbits/s speed=0.0149x elapsed=0:02:48.50    \nframe=  303 fps=1.8 q=30.0 size=       1KiB time=00:00:02.51 bitrate=   1.8kbits/s speed=0.0149x elapsed=0:02:49.03    \nframe=  304 fps=1.8 q=30.0 size=       1KiB time=00:00:02.52 bitrate=   1.8kbits/s speed=0.0149x elapsed=0:02:49.54    \nframe=  305 fps=1.8 q=14.0 size=       1KiB time=00:00:02.53 bitrate=   1.8kbits/s speed=0.0149x elapsed=0:02:50.07    \nframe=  306 fps=1.8 q=31.0 size=       1KiB time=00:00:02.54 bitrate=   1.8kbits/s speed=0.0149x elapsed=0:02:50.59    \nframe=  307 fps=1.8 q=30.0 size=       1KiB time=00:00:02.55 bitrate=   1.8kbits/s speed=0.0149x elapsed=0:02:51.11    \nframe=  307 fps=1.8 q=30.0 size=       1KiB time=00:00:02.55 bitrate=   1.8kbits/s speed=0.0149x elapsed=0:02:51.64    \nframe=  308 fps=1.8 q=31.0 size=       1KiB time=00:00:02.55 bitrate=   1.8kbits/s speed=0.0149x elapsed=0:02:52.17    \nframe=  309 fps=1.8 q=27.0 size=       1KiB time=00:00:02.56 bitrate=   1.7kbits/s speed=0.0149x elapsed=0:02:52.69    \nframe=  310 fps=1.8 q=32.0 size=       1KiB time=00:00:02.57 bitrate=   1.7kbits/s speed=0.0149x elapsed=0:02:53.20    \nframe=  311 fps=1.8 q=30.0 size=       1KiB time=00:00:02.58 bitrate=   1.7kbits/s speed=0.0149x elapsed=0:02:53.71    \nframe=  311 fps=1.8 q=30.0 size=       1KiB time=00:00:02.58 bitrate=   1.7kbits/s speed=0.0148x elapsed=0:02:54.23    \nframe=  313 fps=1.8 q=23.0 size=       1KiB time=00:00:02.60 bitrate=   1.7kbits/s speed=0.0149x elapsed=0:02:54.76    \nframe=  314 fps=1.8 q=34.0 size=       1KiB time=00:00:02.60 bitrate=   1.7kbits/s speed=0.0149x elapsed=0:02:55.27    \nframe=  314 fps=1.8 q=34.0 size=       1KiB time=00:00:02.60 bitrate=   1.7kbits/s speed=0.0148x elapsed=0:02:55.80    \nframe=  315 fps=1.8 q=31.0 size=       1KiB time=00:00:02.61 bitrate=   1.7kbits/s speed=0.0148x elapsed=0:02:56.33    \nframe=  317 fps=1.8 q=27.0 size=       1KiB time=00:00:02.63 bitrate=   1.7kbits/s speed=0.0149x elapsed=0:02:56.84    \nframe=  317 fps=1.8 q=27.0 size=       1KiB time=00:00:02.63 bitrate=   1.7kbits/s speed=0.0148x elapsed=0:02:57.36    \nframe=  318 fps=1.8 q=34.0 size=       1KiB time=00:00:02.64 bitrate=   1.7kbits/s speed=0.0149x elapsed=0:02:57.87    \nframe=  320 fps=1.8 q=27.0 size=       1KiB time=00:00:02.65 bitrate=   1.7kbits/s speed=0.0149x elapsed=0:02:58.39    \nframe=  321 fps=1.8 q=14.0 size=       1KiB time=00:00:02.66 bitrate=   1.7kbits/s speed=0.0149x elapsed=0:02:58.91    \nframe=  322 fps=1.8 q=33.0 size=       1KiB time=00:00:02.67 bitrate=   1.7kbits/s speed=0.0149x elapsed=0:02:59.43    \nframe=  323 fps=1.8 q=32.0 size=       1KiB time=00:00:02.68 bitrate=   1.7kbits/s speed=0.0149x elapsed=0:02:59.96    \nframe=  325 fps=1.8 q=30.0 size=       1KiB time=00:00:02.70 bitrate=   1.7kbits/s speed=0.015x elapsed=0:03:00.48    \nframe=  326 fps=1.8 q=33.0 size=       1KiB time=00:00:02.70 bitrate=   1.7kbits/s speed=0.015x elapsed=0:03:00.99    \nframe=  326 fps=1.8 q=33.0 size=       1KiB time=00:00:02.70 bitrate=   1.7kbits/s speed=0.0149x elapsed=0:03:01.51    \nframe=  327 fps=1.8 q=32.0 size=       1KiB time=00:00:02.71 bitrate=   1.6kbits/s speed=0.0149x elapsed=0:03:02.03    \nframe=  328 fps=1.8 q=33.0 size=       1KiB time=00:00:02.72 bitrate=   1.6kbits/s speed=0.0149x elapsed=0:03:02.55    \nframe=  330 fps=1.8 q=33.0 size=       1KiB time=00:00:02.74 bitrate=   1.6kbits/s speed=0.015x elapsed=0:03:03.08    \nframe=  331 fps=1.8 q=31.0 size=       1KiB time=00:00:02.75 bitrate=   1.6kbits/s speed=0.015x elapsed=0:03:03.59    \nframe=  331 fps=1.8 q=31.0 size=       1KiB time=00:00:02.75 bitrate=   1.6kbits/s speed=0.0149x elapsed=0:03:04.10    \nframe=  332 fps=1.8 q=30.0 size=       1KiB time=00:00:02.75 bitrate=   1.6kbits/s speed=0.0149x elapsed=0:03:04.62    \nframe=  334 fps=1.8 q=32.0 size=       1KiB time=00:00:02.77 bitrate=   1.6kbits/s speed=0.015x elapsed=0:03:05.14    \nframe=  336 fps=1.8 q=32.0 size=       1KiB time=00:00:02.79 bitrate=   1.6kbits/s speed=0.015x elapsed=0:03:05.66    \nframe=  337 fps=1.8 q=15.0 size=       1KiB time=00:00:02.80 bitrate=   1.6kbits/s speed=0.015x elapsed=0:03:06.17    \nframe=  338 fps=1.8 q=33.0 size=       1KiB time=00:00:02.80 bitrate=   1.6kbits/s speed=0.015x elapsed=0:03:06.69    \nframe=  340 fps=1.8 q=33.0 size=       1KiB time=00:00:02.82 bitrate=   1.6kbits/s speed=0.0151x elapsed=0:03:07.20    \nframe=  341 fps=1.8 q=30.0 size=       1KiB time=00:00:02.83 bitrate=   1.6kbits/s speed=0.0151x elapsed=0:03:07.71    \nframe=  342 fps=1.8 q=33.0 size=       1KiB time=00:00:02.84 bitrate=   1.6kbits/s speed=0.0151x elapsed=0:03:08.23    \nframe=  343 fps=1.8 q=32.0 size=       1KiB time=00:00:02.85 bitrate=   1.6kbits/s speed=0.0151x elapsed=0:03:08.75    \nframe=  344 fps=1.8 q=33.0 size=       1KiB time=00:00:02.85 bitrate=   1.6kbits/s speed=0.0151x elapsed=0:03:09.29    \nframe=  346 fps=1.8 q=33.0 size=       1KiB time=00:00:02.87 bitrate=   1.6kbits/s speed=0.0151x elapsed=0:03:09.81    \nframe=  347 fps=1.8 q=31.0 size=       1KiB time=00:00:02.88 bitrate=   1.6kbits/s speed=0.0151x elapsed=0:03:10.36    \nframe=  348 fps=1.8 q=30.0 size=       1KiB time=00:00:02.89 bitrate=   1.5kbits/s speed=0.0151x elapsed=0:03:10.91    \nframe=  350 fps=1.8 q=32.0 size=       1KiB time=00:00:02.90 bitrate=   1.5kbits/s speed=0.0152x elapsed=0:03:11.45    \nframe=  351 fps=1.8 q=30.0 size=       1KiB time=00:00:02.91 bitrate=   1.5kbits/s speed=0.0152x elapsed=0:03:12.05    \nframe=  352 fps=1.8 q=26.0 size=       1KiB time=00:00:02.92 bitrate=   1.5kbits/s speed=0.0152x elapsed=0:03:12.61    \nframe=  353 fps=1.8 q=17.0 size=       1KiB time=00:00:02.93 bitrate=   1.5kbits/s speed=0.0152x elapsed=0:03:13.17    \nframe=  354 fps=1.8 q=33.0 size=       1KiB time=00:00:02.94 bitrate=   1.5kbits/s speed=0.0152x elapsed=0:03:13.73    \nframe=  355 fps=1.8 q=32.0 size=       1KiB time=00:00:02.95 bitrate=   1.5kbits/s speed=0.0152x elapsed=0:03:14.28    \nframe=  356 fps=1.8 q=33.0 size=       1KiB time=00:00:02.95 bitrate=   1.5kbits/s speed=0.0152x elapsed=0:03:14.82    \nframe=  358 fps=1.8 q=33.0 size=       1KiB time=00:00:02.97 bitrate=   1.5kbits/s speed=0.0152x elapsed=0:03:15.35    \nframe=  358 fps=1.8 q=33.0 size=       1KiB time=00:00:02.97 bitrate=   1.5kbits/s speed=0.0152x elapsed=0:03:15.89    \nframe=  359 fps=1.8 q=32.0 size=       1KiB time=00:00:02.98 bitrate=   1.5kbits/s speed=0.0152x elapsed=0:03:16.43    \nframe=  361 fps=1.8 q=25.0 size=       1KiB time=00:00:02.99 bitrate=   1.5kbits/s speed=0.0152x elapsed=0:03:16.99    \nframe=  362 fps=1.8 q=33.0 size=       1KiB time=00:00:03.00 bitrate=   1.5kbits/s speed=0.0152x elapsed=0:03:17.54    \nframe=  363 fps=1.8 q=31.0 size=       1KiB time=00:00:03.01 bitrate=   1.5kbits/s speed=0.0152x elapsed=0:03:18.09    \nframe=  365 fps=1.8 q=27.0 size=       1KiB time=00:00:03.03 bitrate=   1.5kbits/s speed=0.0153x elapsed=0:03:18.65    \nframe=  366 fps=1.8 q=32.0 size=       1KiB time=00:00:03.04 bitrate=   1.5kbits/s speed=0.0153x elapsed=0:03:19.20    \nframe=  368 fps=1.8 q=32.0 size=       1KiB time=00:00:03.05 bitrate=   1.5kbits/s speed=0.0153x elapsed=0:03:19.75    \nframe=  369 fps=1.8 q=16.0 size=       1KiB time=00:00:03.06 bitrate=   1.5kbits/s speed=0.0153x elapsed=0:03:20.28    \nframe=  371 fps=1.8 q=30.0 size=       1KiB time=00:00:03.08 bitrate=   1.5kbits/s speed=0.0154x elapsed=0:03:20.82    \nframe=  372 fps=1.8 q=32.0 size=       1KiB time=00:00:03.09 bitrate=   1.4kbits/s speed=0.0154x elapsed=0:03:21.35    \nframe=  374 fps=1.9 q=32.0 size=       1KiB time=00:00:03.10 bitrate=   1.4kbits/s speed=0.0154x elapsed=0:03:21.90    \nframe=  375 fps=1.9 q=30.0 size=       1KiB time=00:00:03.11 bitrate=   1.4kbits/s speed=0.0154x elapsed=0:03:22.44    \nframe=  377 fps=1.9 q=26.0 size=       1KiB time=00:00:03.13 bitrate=   1.4kbits/s speed=0.0154x elapsed=0:03:22.97    \nframe=  378 fps=1.9 q=32.0 size=       1KiB time=00:00:03.14 bitrate=   1.4kbits/s speed=0.0154x elapsed=0:03:23.51    \nframe=  379 fps=1.9 q=30.0 size=       1KiB time=00:00:03.15 bitrate=   1.4kbits/s speed=0.0154x elapsed=0:03:24.05    \nframe=  381 fps=1.9 q=26.0 size=       1KiB time=00:00:03.16 bitrate=   1.4kbits/s speed=0.0155x elapsed=0:03:24.59    \nframe=  383 fps=1.9 q=30.0 size=       1KiB time=00:00:03.18 bitrate=   1.4kbits/s speed=0.0155x elapsed=0:03:25.14    \nframe=  385 fps=1.9 q=17.0 size=       1KiB time=00:00:03.20 bitrate=   1.4kbits/s speed=0.0156x elapsed=0:03:25.71    \nframe=  386 fps=1.9 q=33.0 size=       1KiB time=00:00:03.20 bitrate=   1.4kbits/s speed=0.0156x elapsed=0:03:26.25    \nframe=  388 fps=1.9 q=33.0 size=       1KiB time=00:00:03.21 bitrate=   1.4kbits/s speed=0.0156x elapsed=0:03:26.78    \nframe=  389 fps=1.9 q=30.0 size=       1KiB time=00:00:03.23 bitrate=   1.4kbits/s speed=0.0156x elapsed=0:03:27.30    \nframe=  390 fps=1.9 q=33.0 size=       1KiB time=00:00:03.24 bitrate=   1.4kbits/s speed=0.0156x elapsed=0:03:27.82    \nframe=  391 fps=1.9 q=32.0 size=       1KiB time=00:00:03.25 bitrate=   1.4kbits/s speed=0.0156x elapsed=0:03:28.35    \nframe=  393 fps=1.9 q=26.0 size=       1KiB time=00:00:03.26 bitrate=   1.4kbits/s speed=0.0156x elapsed=0:03:28.90    \nframe=  395 fps=1.9 q=30.0 size=       1KiB time=00:00:03.28 bitrate=   1.4kbits/s speed=0.0157x elapsed=0:03:29.43    \nframe=  397 fps=1.9 q=26.0 size=       1KiB time=00:00:03.30 bitrate=   1.4kbits/s speed=0.0157x elapsed=0:03:29.99    \nframe=  399 fps=1.9 q=30.0 size=       1KiB time=00:00:03.31 bitrate=   1.4kbits/s speed=0.0158x elapsed=0:03:30.51    \nframe=  401 fps=1.9 q=17.0 size=       1KiB time=00:00:03.33 bitrate=   1.3kbits/s speed=0.0158x elapsed=0:03:31.05    \nframe=  403 fps=1.9 q=30.0 size=       1KiB time=00:00:03.34 bitrate=   1.3kbits/s speed=0.0158x elapsed=0:03:31.59    \nframe=  404 fps=1.9 q=32.0 size=       1KiB time=00:00:03.35 bitrate=   1.3kbits/s speed=0.0158x elapsed=0:03:32.12    \nframe=  405 fps=1.9 q=26.0 size=       1KiB time=00:00:03.36 bitrate=   1.3kbits/s speed=0.0158x elapsed=0:03:32.65    \nframe=  406 fps=1.9 q=32.0 size=       1KiB time=00:00:03.37 bitrate=   1.3kbits/s speed=0.0158x elapsed=0:03:33.18    \nframe=  407 fps=1.9 q=30.0 size=       1KiB time=00:00:03.38 bitrate=   1.3kbits/s speed=0.0158x elapsed=0:03:33.72    \nframe=  408 fps=1.9 q=32.0 size=       1KiB time=00:00:03.39 bitrate=   1.3kbits/s speed=0.0158x elapsed=0:03:34.26    \nframe=  410 fps=1.9 q=32.0 size=       1KiB time=00:00:03.40 bitrate=   1.3kbits/s speed=0.0159x elapsed=0:03:34.81    \nframe=  411 fps=1.9 q=30.0 size=       1KiB time=00:00:03.41 bitrate=   1.3kbits/s speed=0.0159x elapsed=0:03:35.37    \nframe=  414 fps=1.9 q=31.0 size=       1KiB time=00:00:03.44 bitrate=   1.3kbits/s speed=0.0159x elapsed=0:03:35.90    \nframe=  416 fps=1.9 q=25.0 size=       1KiB time=00:00:03.45 bitrate=   1.3kbits/s speed=0.016x elapsed=0:03:36.43    \nframe=  419 fps=1.9 q=31.0 size=       1KiB time=00:00:03.48 bitrate=   1.3kbits/s speed=0.0161x elapsed=0:03:36.96    \nframe=  421 fps=1.9 q=29.0 size=       1KiB time=00:00:03.50 bitrate=   1.3kbits/s speed=0.0161x elapsed=0:03:37.48    \nframe=  422 fps=1.9 q=32.0 size=       1KiB time=00:00:03.50 bitrate=   1.3kbits/s speed=0.0161x elapsed=0:03:38.01    \nframe=  423 fps=1.9 q=31.0 size=       1KiB time=00:00:03.51 bitrate=   1.3kbits/s speed=0.0161x elapsed=0:03:38.54    \nframe=  424 fps=1.9 q=32.0 size=       1KiB time=00:00:03.52 bitrate=   1.3kbits/s speed=0.0161x elapsed=0:03:39.11    \nframe=  426 fps=1.9 q=31.0 size=       1KiB time=00:00:03.54 bitrate=   1.3kbits/s speed=0.0161x elapsed=0:03:39.66    \nframe=  428 fps=1.9 q=29.0 size=       1KiB time=00:00:03.55 bitrate=   1.3kbits/s speed=0.0161x elapsed=0:03:40.30    \nframe=  435 fps=2.0 q=31.0 size=       1KiB time=00:00:03.60 bitrate=   1.2kbits/s speed=0.0163x elapsed=0:03:41.12    \nframe=  438 fps=2.0 q=32.0 size=       1KiB time=00:00:03.64 bitrate=   1.2kbits/s speed=0.0164x elapsed=0:03:41.82    \nframe=  442 fps=2.0 q=31.0 size=       1KiB time=00:00:03.66 bitrate=   1.2kbits/s speed=0.0165x elapsed=0:03:42.54    \nframe=  443 fps=2.0 q=29.0 size=       1KiB time=00:00:03.68 bitrate=   1.2kbits/s speed=0.0165x elapsed=0:03:43.41    \nframe=  448 fps=2.0 q=24.0 size=    5120KiB time=00:00:03.71 bitrate=11285.1kbits/s speed=0.0166x elapsed=0:03:44.07    \nframe=  453 fps=2.0 q=29.0 size=    5120KiB time=00:00:03.76 bitrate=11135.3kbits/s speed=0.0168x elapsed=0:03:44.77    \nframe=  457 fps=2.0 q=24.0 size=    5120KiB time=00:00:03.79 bitrate=11061.9kbits/s speed=0.0168x elapsed=0:03:45.36    \nframe=  459 fps=2.0 q=29.0 size=    5120KiB time=00:00:03.81 bitrate=10989.4kbits/s speed=0.0169x elapsed=0:03:46.06    \nframe=  465 fps=2.1 q=15.0 size=    5120KiB time=00:00:03.85 bitrate=10870.8kbits/s speed=0.017x elapsed=0:03:46.66    \nframe=  469 fps=2.1 q=29.0 size=    5120KiB time=00:00:03.90 bitrate=10754.6kbits/s speed=0.0172x elapsed=0:03:47.34    \nframe=  474 fps=2.1 q=31.0 size=    5120KiB time=00:00:03.93 bitrate=10663.5kbits/s speed=0.0172x elapsed=0:03:48.11    \nframe=  480 fps=2.1 q=31.0 size=    5120KiB time=00:00:03.97 bitrate=10551.7kbits/s speed=0.0174x elapsed=0:03:48.79    \nframe=  484 fps=2.1 q=32.0 size=    5120KiB time=00:00:04.01 bitrate=10442.2kbits/s speed=0.0175x elapsed=0:03:49.48    \nframe=  487 fps=2.1 q=24.0 size=    5120KiB time=00:00:04.04 bitrate=10377.7kbits/s speed=0.0176x elapsed=0:03:50.14    \nframe=  490 fps=2.1 q=31.0 size=    5120KiB time=00:00:04.07 bitrate=10292.8kbits/s speed=0.0176x elapsed=0:03:50.96    \nframe=  495 fps=2.1 q=29.0 size=    5120KiB time=00:00:04.10 bitrate=10209.3kbits/s speed=0.0177x elapsed=0:03:51.74    \nframe=  498 fps=2.1 q=32.0 size=    5120KiB time=00:00:04.14 bitrate=10127.1kbits/s speed=0.0178x elapsed=0:03:52.34    \nframe=  500 fps=2.1 q=32.0 size=    5120KiB time=00:00:04.15 bitrate=10086.5kbits/s speed=0.0178x elapsed=0:03:53.02    \nframe=  505 fps=2.2 q=24.0 size=    5120KiB time=00:00:04.20 bitrate=9986.4kbits/s speed=0.018x elapsed=0:03:53.69    \nframe=  507 fps=2.2 q=29.0 size=    5120KiB time=00:00:04.21 bitrate=9947.0kbits/s speed=0.018x elapsed=0:03:54.41    \nframe=  509 fps=2.2 q=24.0 size=    5120KiB time=00:00:04.23 bitrate=9907.8kbits/s speed=0.018x elapsed=0:03:54.97    \nframe=  511 fps=2.2 q=29.0 size=    5120KiB time=00:00:04.23 bitrate=9907.8kbits/s speed=0.018x elapsed=0:03:55.52    \nframe=  513 fps=2.2 q=15.0 size=    5120KiB time=00:00:04.26 bitrate=9830.4kbits/s speed=0.0181x elapsed=0:03:56.06    \nframe=  513 fps=2.2 q=15.0 size=    5120KiB time=00:00:04.26 bitrate=9830.4kbits/s speed=0.018x elapsed=0:03:56.60    \nframe=  517 fps=2.2 q=29.0 size=    5120KiB time=00:00:04.30 bitrate=9754.2kbits/s speed=0.0181x elapsed=0:03:57.15    \nframe=  517 fps=2.2 q=29.0 size=    5120KiB time=00:00:04.30 bitrate=9754.2kbits/s speed=0.0181x elapsed=0:03:57.69    \nframe=  519 fps=2.2 q=24.0 size=    5120KiB time=00:00:04.31 bitrate=9716.5kbits/s speed=0.0181x elapsed=0:03:58.24    \nframe=  521 fps=2.2 q=24.0 size=    5120KiB time=00:00:04.33 bitrate=9679.2kbits/s speed=0.0181x elapsed=0:03:58.78    \nframe=  521 fps=2.2 q=24.0 size=    5120KiB time=00:00:04.33 bitrate=9679.2kbits/s speed=0.0181x elapsed=0:03:59.34    \nframe=  521 fps=2.2 q=24.0 size=    5120KiB time=00:00:04.33 bitrate=9679.2kbits/s speed=0.0181x elapsed=0:03:59.89    \nframe=  525 fps=2.2 q=24.0 size=    5120KiB time=00:00:04.36 bitrate=9605.3kbits/s speed=0.0181x elapsed=0:04:00.66    \nframe=  529 fps=2.2 q=14.0 size=    5120KiB time=00:00:04.40 bitrate=9532.5kbits/s speed=0.0182x elapsed=0:04:01.48    \nframe=  533 fps=2.2 q=29.0 size=    5120KiB time=00:00:04.43 bitrate=9460.8kbits/s speed=0.0183x elapsed=0:04:02.07    \nframe=  537 fps=2.2 q=24.0 size=    5120KiB time=00:00:04.46 bitrate=9390.2kbits/s speed=0.0184x elapsed=0:04:02.82    \nframe=  539 fps=2.2 q=29.0 size=    5120KiB time=00:00:04.46 bitrate=9390.2kbits/s speed=0.0183x elapsed=0:04:03.81    \nframe=  541 fps=2.2 q=24.0 size=    5120KiB time=00:00:04.50 bitrate=9320.7kbits/s speed=0.0184x elapsed=0:04:04.50    \nframe=  543 fps=2.2 q=29.0 size=    5120KiB time=00:00:04.51 bitrate=9286.3kbits/s speed=0.0184x elapsed=0:04:05.15    \nframe=  547 fps=2.2 q=31.0 size=    5120KiB time=00:00:04.55 bitrate=9218.3kbits/s speed=0.0185x elapsed=0:04:05.69    \nframe=  549 fps=2.2 q=29.0 size=    5120KiB time=00:00:04.56 bitrate=9184.6kbits/s speed=0.0185x elapsed=0:04:06.22    \nframe=  549 fps=2.2 q=29.0 size=    5120KiB time=00:00:04.56 bitrate=9184.6kbits/s speed=0.0185x elapsed=0:04:06.76    \nframe=  551 fps=2.2 q=31.0 size=    5120KiB time=00:00:04.58 bitrate=9151.2kbits/s speed=0.0185x elapsed=0:04:07.29    \nframe=  553 fps=2.2 q=24.0 size=    5120KiB time=00:00:04.60 bitrate=9118.1kbits/s speed=0.0186x elapsed=0:04:07.84    \nframe=  553 fps=2.2 q=24.0 size=    5120KiB time=00:00:04.60 bitrate=9118.1kbits/s speed=0.0185x elapsed=0:04:08.38    \nframe=  555 fps=2.2 q=29.0 size=    5120KiB time=00:00:04.60 bitrate=9118.1kbits/s speed=0.0185x elapsed=0:04:09.00    \nframe=  557 fps=2.2 q=24.0 size=    5120KiB time=00:00:04.63 bitrate=9052.5kbits/s speed=0.0186x elapsed=0:04:09.65    \nframe=  559 fps=2.2 q=29.0 size=    5120KiB time=00:00:04.65 bitrate=9020.0kbits/s speed=0.0186x elapsed=0:04:10.19    \nframe=  561 fps=2.2 q=14.0 size=    5120KiB time=00:00:04.66 bitrate=8987.8kbits/s speed=0.0186x elapsed=0:04:10.74    \nframe=  565 fps=2.2 q=29.0 size=    5120KiB time=00:00:04.70 bitrate=8924.1kbits/s speed=0.0187x elapsed=0:04:11.26    \nframe=  569 fps=2.3 q=24.0 size=    5120KiB time=00:00:04.73 bitrate=8861.2kbits/s speed=0.0188x elapsed=0:04:11.78    \nframe=  569 fps=2.3 q=24.0 size=    5120KiB time=00:00:04.73 bitrate=8861.2kbits/s speed=0.0188x elapsed=0:04:12.40    \nframe=  571 fps=2.3 q=30.0 size=    5120KiB time=00:00:04.75 bitrate=8830.1kbits/s speed=0.0188x elapsed=0:04:12.95    \nframe=  573 fps=2.3 q=27.0 size=    5120KiB time=00:00:04.76 bitrate=8799.2kbits/s speed=0.0188x elapsed=0:04:13.53    \nframe=  577 fps=2.3 q=14.0 size=    5120KiB time=00:00:04.80 bitrate=8738.1kbits/s speed=0.0189x elapsed=0:04:14.05    \nframe=  581 fps=2.3 q=32.0 size=    5120KiB time=00:00:04.83 bitrate=8677.9kbits/s speed=0.019x elapsed=0:04:14.55    \nframe=  585 fps=2.3 q=30.0 size=    5120KiB time=00:00:04.86 bitrate=8618.4kbits/s speed=0.0191x elapsed=0:04:15.07    \nframe=  585 fps=2.3 q=30.0 size=    5120KiB time=00:00:04.86 bitrate=8618.4kbits/s speed=0.019x elapsed=0:04:15.59    \nframe=  589 fps=2.3 q=33.0 size=    5120KiB time=00:00:04.90 bitrate=8559.8kbits/s speed=0.0191x elapsed=0:04:16.11    \nframe=  591 fps=2.3 q=33.0 size=    5120KiB time=00:00:04.91 bitrate=8530.8kbits/s speed=0.0192x elapsed=0:04:16.63    \n[out#0/matroska @ 00000157ba4b93c0] video:5991KiB audio:0KiB subtitle:0KiB other streams:0KiB global headers:0KiB muxing overhead: 0.055344%\nframe=  600 fps=2.3 q=33.0 Lsize=    5994KiB time=00:00:04.99 bitrate=9836.8kbits/s speed=0.0194x elapsed=0:04:16.76    \n",
  "seconds": 258.00254106521606,
  "probe_out": {}
}